<svg width="101" height="134" viewBox="0 0 101 134" fill="none" xmlns="http://www.w3.org/2000/svg">
<mask id="mask0" mask-type="alpha" maskUnits="userSpaceOnUse" x="6" y="37" width="31" height="97">
<rect x="6.45016" y="37.9429" width="29.556" height="96.0571" fill="#5970AF"/>
</mask>
<g mask="url(#mask0)">
<rect x="6.45016" y="37.9429" width="29.556" height="96.0571" fill="#5970AF"/>
<rect x="-8.41856" y="97.6234" width="73.8901" height="11.3677" transform="rotate(20 -8.41856 97.6234)" fill="#374396"/>
<rect x="-8.41856" y="66.3622" width="73.8901" height="11.3677" transform="rotate(20 -8.41856 66.3622)" fill="#374396"/>
<rect x="-3.87148" y="38.5113" width="73.8901" height="11.3677" transform="rotate(20 -3.87148 38.5113)" fill="#374396"/>
</g>
<rect x="9.29208" y="22.5965" width="3.41031" height="15.3464" fill="#5970AF"/>
<rect x="29.1856" y="22.5965" width="3.41031" height="15.3464" fill="#5970AF"/>
<path d="M21.2282 4.4082L38.9487 24.0175H3.50768L21.2282 4.4082Z" fill="#374396"/>
<rect x="17.8179" y="26.0069" width="6.82062" height="11.9361" rx="3.41031" fill="#C49A6C"/>
<path d="M64.1412 132.295L21.5124 29.133L100.234 132.295H64.1412Z" fill="#E79F50"/>
<path fill-rule="evenodd" clip-rule="evenodd" d="M36.2194 16.4993C36.6932 13.6481 39.2802 11.4684 42.4005 11.4684C45.5208 11.4684 48.1078 13.6481 48.5816 16.4993C48.6327 16.192 48.6592 15.877 48.6592 15.556C48.6592 12.2565 45.8571 9.58179 42.4005 9.58179C38.9439 9.58179 36.1418 12.2565 36.1418 15.556C36.1418 15.877 36.1683 16.192 36.2194 16.4993Z" fill="#9A9A9A"/>
<path fill-rule="evenodd" clip-rule="evenodd" d="M48.7368 16.1699C49.2106 13.3187 51.7976 11.139 54.9179 11.139C58.0382 11.139 60.6252 13.3186 61.099 16.1699C61.1501 15.8626 61.1766 15.5476 61.1766 15.2266C61.1766 11.9272 58.3745 9.25241 54.9179 9.25241C51.4613 9.25241 48.6592 11.9272 48.6592 15.2266C48.6592 15.5476 48.6857 15.8627 48.7368 16.1699Z" fill="#9A9A9A"/>
<path fill-rule="evenodd" clip-rule="evenodd" d="M52.3773 3.41032C52.6003 2.06856 53.8177 1.04284 55.2861 1.04284C56.7544 1.04284 57.9718 2.06855 58.1948 3.4103C58.2188 3.26571 58.2313 3.11744 58.2313 2.96639C58.2313 1.4137 56.9127 0.154999 55.2861 0.154999C53.6594 0.154999 52.3408 1.4137 52.3408 2.96639C52.3408 3.11745 52.3533 3.26572 52.3773 3.41032Z" fill="#9A9A9A"/>
<path fill-rule="evenodd" clip-rule="evenodd" d="M58.2678 3.25531C58.4908 1.91354 59.7082 0.887814 61.1766 0.887814C62.645 0.887814 63.8624 1.91353 64.0854 3.25528C64.1094 3.11069 64.1219 2.96243 64.1219 2.81139C64.1219 1.2587 62.8032 0 61.1766 0C59.55 0 58.2313 1.2587 58.2313 2.81139C58.2313 2.96244 58.2438 3.11071 58.2678 3.25531Z" fill="#9A9A9A"/>
</svg>
